<svg width="12" height="12" viewBox="0 0 12 12" fill="none" xmlns="http://www.w3.org/2000/svg">
<mask id="mask0_1987_612" style="mask-type:alpha" maskUnits="userSpaceOnUse" x="1" y="3" width="10" height="6">
<path d="M6.7072 6.28354C6.31666 6.67419 5.68334 6.67419 5.2928 6.28354L2.21936 3.20927C1.94042 2.93024 1.48816 2.93024 1.20921 3.20927C0.930264 3.48829 0.930264 3.94067 1.20921 4.21969L5.49492 8.50657C5.77387 8.78559 6.22613 8.78559 6.50508 8.50657L10.7908 4.21969C11.0697 3.94067 11.0697 3.48829 10.7908 3.20927C10.5118 2.93024 10.0596 2.93024 9.78064 3.20927L6.7072 6.28354Z" fill="white"/>
</mask>
<g mask="url(#mask0_1987_612)">
<path d="M6.7072 6.28354C6.31666 6.67419 5.68334 6.67419 5.2928 6.28354L2.21936 3.20927C1.94042 2.93024 1.48816 2.93024 1.20921 3.20927C0.930264 3.48829 0.930264 3.94067 1.20921 4.21969L5.49492 8.50657C5.77387 8.78559 6.22613 8.78559 6.50508 8.50657L10.7908 4.21969C11.0697 3.94067 11.0697 3.48829 10.7908 3.20927C10.5118 2.93024 10.0596 2.93024 9.78064 3.20927L6.7072 6.28354Z" fill="#01426A"/>
<path d="M13.6429 -2.5H-1.5C-2.05228 -2.5 -2.5 -2.05229 -2.5 -1.5V13.6476C-2.5 14.1999 -2.05229 14.6476 -1.5 14.6476H13.6429C14.1952 14.6476 14.6429 14.1999 14.6429 13.6476V-1.5C14.6429 -2.05228 14.1952 -2.5 13.6429 -2.5Z" fill="#01426A"/>
</g>
</svg>
